<mxfile host="app.diagrams.net" modified="2021-11-02T04:35:13.679Z" agent="5.0 (Windows NT 10.0; Win64; x64) AppleWebKit/537.36 (KHTML, like Gecko) Chrome/95.0.4638.54 Safari/537.36" etag="ewgOYnaYpdgljRJhjiam" version="15.6.5" type="github">
  <diagram id="IXwqXhgnDkeGvteRUH3C" name="第 1 页">
    <mxGraphModel dx="1038" dy="547" grid="1" gridSize="10" guides="1" tooltips="1" connect="1" arrows="1" fold="1" page="1" pageScale="1" pageWidth="827" pageHeight="1169" math="0" shadow="0">
      <root>
        <mxCell id="0" />
        <mxCell id="1" parent="0" />
        <mxCell id="MLV8fCWVCvASni8vyX7m-4" value="" style="edgeStyle=orthogonalEdgeStyle;rounded=0;orthogonalLoop=1;jettySize=auto;html=1;fontColor=default;strokeColor=default;labelBackgroundColor=default;" edge="1" parent="1" source="MLV8fCWVCvASni8vyX7m-1" target="MLV8fCWVCvASni8vyX7m-3">
          <mxGeometry relative="1" as="geometry" />
        </mxCell>
        <mxCell id="MLV8fCWVCvASni8vyX7m-1" value="Input Projection" style="rounded=1;whiteSpace=wrap;html=1;fillColor=#f5f5f5;strokeColor=default;fontColor=default;shadow=0;glass=0;sketch=0;labelBackgroundColor=none;" vertex="1" parent="1">
          <mxGeometry x="160" y="30" width="120" height="40" as="geometry" />
        </mxCell>
        <mxCell id="MLV8fCWVCvASni8vyX7m-14" style="edgeStyle=orthogonalEdgeStyle;rounded=0;orthogonalLoop=1;jettySize=auto;html=1;exitX=0.5;exitY=1;exitDx=0;exitDy=0;entryX=0.5;entryY=0;entryDx=0;entryDy=0;labelBackgroundColor=default;fontColor=default;strokeColor=default;" edge="1" parent="1" source="MLV8fCWVCvASni8vyX7m-3" target="MLV8fCWVCvASni8vyX7m-13">
          <mxGeometry relative="1" as="geometry" />
        </mxCell>
        <mxCell id="MLV8fCWVCvASni8vyX7m-3" value="LeWin Transformer Block" style="rounded=1;whiteSpace=wrap;html=1;fillColor=#dae8fc;strokeColor=#000000;shadow=0;glass=0;sketch=0;labelBackgroundColor=none;fontColor=default;" vertex="1" parent="1">
          <mxGeometry x="160" y="140" width="120" height="80" as="geometry" />
        </mxCell>
        <mxCell id="MLV8fCWVCvASni8vyX7m-5" value="x2" style="text;html=1;strokeColor=none;fillColor=none;align=center;verticalAlign=middle;whiteSpace=wrap;rounded=0;shadow=0;glass=0;sketch=0;fontColor=default;labelBackgroundColor=none;" vertex="1" parent="1">
          <mxGeometry x="250" y="200" width="30" height="20" as="geometry" />
        </mxCell>
        <mxCell id="MLV8fCWVCvASni8vyX7m-16" style="edgeStyle=orthogonalEdgeStyle;rounded=0;orthogonalLoop=1;jettySize=auto;html=1;exitX=0.5;exitY=1;exitDx=0;exitDy=0;entryX=0.5;entryY=0;entryDx=0;entryDy=0;labelBackgroundColor=default;fontColor=default;strokeColor=default;" edge="1" parent="1" source="MLV8fCWVCvASni8vyX7m-6" target="MLV8fCWVCvASni8vyX7m-15">
          <mxGeometry relative="1" as="geometry" />
        </mxCell>
        <mxCell id="MLV8fCWVCvASni8vyX7m-6" value="LeWin Transformer Block" style="rounded=1;whiteSpace=wrap;html=1;fillColor=#dae8fc;strokeColor=#000000;shadow=0;glass=0;sketch=0;labelBackgroundColor=none;fontColor=default;" vertex="1" parent="1">
          <mxGeometry x="160" y="410" width="120" height="80" as="geometry" />
        </mxCell>
        <mxCell id="MLV8fCWVCvASni8vyX7m-7" value="x2" style="text;html=1;strokeColor=none;fillColor=none;align=center;verticalAlign=middle;whiteSpace=wrap;rounded=0;shadow=0;glass=0;sketch=0;fontColor=default;labelBackgroundColor=none;" vertex="1" parent="1">
          <mxGeometry x="250" y="470" width="30" height="20" as="geometry" />
        </mxCell>
        <mxCell id="MLV8fCWVCvASni8vyX7m-19" style="edgeStyle=orthogonalEdgeStyle;rounded=0;orthogonalLoop=1;jettySize=auto;html=1;exitX=0.5;exitY=1;exitDx=0;exitDy=0;entryX=0.5;entryY=0;entryDx=0;entryDy=0;labelBackgroundColor=default;fontColor=default;strokeColor=default;" edge="1" parent="1" source="MLV8fCWVCvASni8vyX7m-10" target="MLV8fCWVCvASni8vyX7m-18">
          <mxGeometry relative="1" as="geometry" />
        </mxCell>
        <mxCell id="MLV8fCWVCvASni8vyX7m-10" value="LeWin Transformer Block" style="rounded=1;whiteSpace=wrap;html=1;fillColor=#dae8fc;strokeColor=default;shadow=0;glass=0;sketch=0;labelBackgroundColor=none;fontColor=default;" vertex="1" parent="1">
          <mxGeometry x="160" y="680" width="120" height="80" as="geometry" />
        </mxCell>
        <mxCell id="MLV8fCWVCvASni8vyX7m-11" value="x2" style="text;html=1;strokeColor=none;fillColor=none;align=center;verticalAlign=middle;whiteSpace=wrap;rounded=0;shadow=0;glass=0;sketch=0;fontColor=default;labelBackgroundColor=none;" vertex="1" parent="1">
          <mxGeometry x="250" y="740" width="30" height="20" as="geometry" />
        </mxCell>
        <mxCell id="MLV8fCWVCvASni8vyX7m-21" style="edgeStyle=orthogonalEdgeStyle;rounded=0;orthogonalLoop=1;jettySize=auto;html=1;exitX=0.5;exitY=1;exitDx=0;exitDy=0;labelBackgroundColor=default;fontColor=default;strokeColor=default;" edge="1" parent="1" source="MLV8fCWVCvASni8vyX7m-13" target="MLV8fCWVCvASni8vyX7m-6">
          <mxGeometry relative="1" as="geometry" />
        </mxCell>
        <mxCell id="MLV8fCWVCvASni8vyX7m-13" value="Down-sampling" style="rounded=1;whiteSpace=wrap;html=1;shadow=0;glass=0;labelBackgroundColor=none;sketch=0;strokeColor=#000000;fillColor=#fff2cc;fontColor=default;" vertex="1" parent="1">
          <mxGeometry x="160" y="240" width="120" height="60" as="geometry" />
        </mxCell>
        <mxCell id="MLV8fCWVCvASni8vyX7m-20" style="edgeStyle=orthogonalEdgeStyle;rounded=0;orthogonalLoop=1;jettySize=auto;html=1;exitX=0.5;exitY=1;exitDx=0;exitDy=0;labelBackgroundColor=default;fontColor=default;strokeColor=default;" edge="1" parent="1" source="MLV8fCWVCvASni8vyX7m-15" target="MLV8fCWVCvASni8vyX7m-10">
          <mxGeometry relative="1" as="geometry" />
        </mxCell>
        <mxCell id="MLV8fCWVCvASni8vyX7m-15" value="Down-sampling" style="rounded=1;whiteSpace=wrap;html=1;shadow=0;glass=0;labelBackgroundColor=none;sketch=0;strokeColor=#000000;fillColor=#fff2cc;fontColor=default;" vertex="1" parent="1">
          <mxGeometry x="160" y="510" width="120" height="60" as="geometry" />
        </mxCell>
        <mxCell id="MLV8fCWVCvASni8vyX7m-18" value="Down-sampling" style="rounded=1;whiteSpace=wrap;html=1;shadow=0;glass=0;labelBackgroundColor=none;sketch=0;strokeColor=#000000;fillColor=#fff2cc;fontColor=default;" vertex="1" parent="1">
          <mxGeometry x="160" y="780" width="120" height="60" as="geometry" />
        </mxCell>
        <mxCell id="MLV8fCWVCvASni8vyX7m-22" value="&lt;i&gt;&lt;font color=&quot;#999999&quot;&gt;3 x H x W&lt;/font&gt;&lt;/i&gt;" style="text;html=1;strokeColor=none;fillColor=none;align=center;verticalAlign=middle;whiteSpace=wrap;rounded=0;shadow=0;glass=0;labelBackgroundColor=none;sketch=0;fontColor=default;" vertex="1" parent="1">
          <mxGeometry x="140" y="70" width="60" height="30" as="geometry" />
        </mxCell>
      </root>
    </mxGraphModel>
  </diagram>
</mxfile>
